PathFileType	4	(X/Y/Z)	D:\Long Term Storage\D'Arcy Smith\Coord13.trc
DataRate	CameraRate	NumFrames	NumMarkers	Units	OrigDataRate	OrigDataStartFrame	OrigNumFrames
120.00	120.00	      85	4	mm	120.00	2997	      4795
Frame#	Time	M1			M2			M3			M4			
		X1	Y1	Z1	X2	Y2	Z2	X3	Y3	Z3	X4	Y4	Z4	

2997	24.967	1039.72888	268.55450	567.32654	1630.07410	330.56143	262.90918							
2998	24.975	1039.62927	267.00522	561.61639	1629.60449	324.97238	270.87183							
2999	24.983	1039.55847	265.24664	555.43951	1629.11670	319.38666	279.17093							
3000	24.992	1039.52454	263.79929	549.01581	1628.75598	313.79776	287.89493							
3001	25.000	1039.51624	262.01031	542.21484	1628.49500	308.45383	297.11636							
3002	25.008	1039.94788	260.60059	535.29779	1628.20898	303.02576	306.83646							
3003	25.017	1039.88953	259.29160	528.04797	1627.56274	297.81625	316.93109							
3004	25.025	1039.87683	258.16718	520.56464	1627.29175	292.69061	327.19107							
3005	25.033	1039.98743	257.19748	512.75922	1627.06238	287.66470	337.97675							
3006	25.042	1040.19751	256.44421	505.21271	1627.13245	283.07693	348.78778							
3007	25.050	1040.67542	255.16028	496.90012	1627.05273	278.47110	360.53271							
3008	25.058	1041.14624	254.61301	488.29520	1626.98560	274.31314	372.62552							
3009	25.067	1041.40002	254.17699	479.32315	1626.88721	270.36591	385.13101							
3010	25.075	1041.96399	253.88721	470.25159	1626.94214	266.85309	398.01248							
3011	25.083	1042.55298	253.96527	460.84811	1626.65479	263.71436	411.19635							
3012	25.092	1043.07947	254.04932	451.15509	1626.58374	261.08429	424.67722							
3013	25.100	1043.74731	254.32770	441.54562	1626.41101	258.92603	438.33282							
3014	25.108	1044.63428	255.17853	431.68222	1626.22461	257.33813	452.16785							
3015	25.117	1045.29431	255.95090	421.49063	1625.94043	256.13641	466.09033							
3016	25.125	1046.20886	257.12411	411.29282	1625.59216	255.27197	480.99985							
3017	25.133	1047.04468	258.56665	401.01443	1625.78418	255.42375	494.72894							
3018	25.142	1047.96851	260.18317	390.50046	1625.69971	255.82349	508.78299							
3019	25.150	1049.20361	262.17432	379.88480	1625.56628	256.65369	522.83197							
3020	25.158	1050.27148	264.23724	369.31458	1625.27783	257.98724	536.64771							
3021	25.167	1051.51062	266.71179	358.84738	1625.07935	259.97830	550.11188							
3022	25.175	1052.51074	269.95297	347.51346	1625.09399	262.76074	563.56036							
3023	25.183	1053.92834	272.93594	336.94495	1624.40259	265.33133	576.43634							
3024	25.192	1055.28235	276.03592	326.52332	1624.01038	268.69568	589.09607							
3025	25.200	1056.66492	279.30313	315.77386	1623.96777	272.67218	601.43970							
3026	25.208	1058.05469	282.82217	305.67871	1623.53809	276.71375	613.04584							
3027	25.217	1059.63855	286.59039	295.79550	1623.11133	280.92731	623.70618							
3028	25.225	1060.92310	290.59323	286.13339	1622.82898	285.46741	634.34869							
3029	25.233	1062.29626	294.69846	276.67383	1622.95276	290.50906	644.59698							
3030	25.242	1063.68457	298.84915	267.66299	1622.11475	294.98398	654.10156							
3031	25.250	1064.95862	303.11475	258.87952	1621.86340	299.85776	663.17444							
3032	25.258	1066.23535	307.48706	250.50786	1621.54980	304.72342	671.63098							
3033	25.267	1067.68787	311.83444	242.47675	1621.79297	309.83429	679.60669							
3034	25.275	1068.76868	316.16782	234.74150	1621.42749	314.60916	687.14435							
3035	25.283	1069.86926	320.51837	227.55453	1621.35486	319.13620	693.93536							
3036	25.292	1070.95190	324.65393	220.91875	1621.07593	323.74606	700.48883							
3037	25.300	1071.94763	328.87888	214.59502	1620.98010	327.62564	706.13763							
3038	25.308	1072.71521	332.79486	208.75247	1620.80701	331.53915	711.51526							
3039	25.317	1073.55078	336.59555	203.48880	1620.72620	335.30505	716.30920							
3040	25.325	1074.03125	340.17352	198.74840	1620.71594	338.70227	720.55029							
3041	25.333	1074.52014	343.43732	194.54057	1620.72681	341.82831	724.41003							
3042	25.342	1074.66309	346.55014	190.82033	1620.30798	344.16187	727.81934							
3043	25.350	1074.79272	349.21750	187.65105	1620.37805	346.69699	730.79657							
3044	25.358	1074.86145	351.64679	184.99937	1620.61646	348.86447	733.12952							
3045	25.367	1074.66833	353.68246	182.89969	1620.76404	350.74585	735.02783							
3046	25.375	1073.93652	355.19128	181.17308	1621.05762	352.19589	736.53217							
3047	25.383	1073.89502	356.82510	179.99255	1621.34265	353.25064	737.70258							
3048	25.392	1073.34863	357.78516	179.29439	1621.71692	353.90216	738.39728							
3049	25.400	1072.66455	358.32510	179.08055	1622.05505	354.15414	738.72601							
3050	25.408	1071.93530	358.54962	179.20180	1622.43323	354.10709	738.63959							
3051	25.417	1070.74487	358.16470	179.76471	1622.94739	353.63815	738.19482							
3052	25.425	1069.65320	357.53082	180.74045	1623.57227	352.88373	737.26514							
3053	25.433	1069.00647	356.87354	182.04968	1624.20459	351.64438	736.08643							
3054	25.442	1067.41968	355.48083	183.67674	1624.90784	350.16956	734.49066							
3055	25.450	1066.81775	354.15768	185.74860	1625.57458	348.19913	732.40234							
3056	25.458	1065.09314	352.48627	188.11507	1626.13342	346.10437	730.09253							
3057	25.467	1064.29126	349.91278	190.92442	1626.86523	343.73288	727.26068							
3058	25.475	1063.02759	347.48431	194.19839	1627.40076	341.02155	724.12433							
3059	25.483	1061.82056	344.83493	197.56148	1628.17163	338.24326	720.52783							
3060	25.492	1059.98438	341.76785	201.49272	1628.73145	335.22467	716.45618							
3061	25.500	1058.68127	338.75305	205.64375	1629.49048	331.93692	712.04340							
3062	25.508	1057.30505	335.34711	210.05942	1630.15161	328.74680	707.13477							
3063	25.517	1056.19714	331.73203	214.79872	1631.33801	325.88800	701.73566							
3064	25.525	1054.86511	327.94205	219.98541	1631.79102	322.24194	695.92865							
3065	25.533	1053.78003	323.85086	225.46371	1632.32373	318.51721	689.64551							
3066	25.542	1052.23608	320.00751	231.11339	1632.71094	314.60840	682.86206							
3067	25.550	1051.33997	315.51746	237.35916	1632.64478	310.43002	675.64117							
3068	25.558	1050.05457	311.28046	243.87862	1633.05151	306.37939	667.93201							
3069	25.567	1048.91541	306.86252	250.81177	1634.30920	302.80920	659.75714							
3070	25.575	1047.50989	302.54892	258.21054	1633.73535	298.56152	651.06348							
3071	25.583	1046.18408	298.14578	265.90622	1634.39807	294.95618	641.71313							
3072	25.592	1045.23621	294.02411	273.93274	1634.07910	290.50290	631.93036							
3073	25.600	1044.24744	289.73520	282.52292	1634.46594	287.08978	622.17932							
3074	25.608	1043.25037	285.65262	291.48837	1634.23425	283.31808	611.62811							
3075	25.617	1042.00696	281.53436	300.58041	1634.29688	279.83987	600.47290							
3076	25.625	1041.24622	277.88217	310.25528	1634.22949	276.59775	589.02185							
3077	25.633	1040.20349	274.12762	320.02231	1634.33655	273.60989	577.02728							
3078	25.642	1039.07520	270.66464	330.71838	1634.21777	270.93619	564.71362							
3079	25.650	1038.24109	267.48260	341.51212	1634.21802	268.51001	552.07990							
3080	25.658	1037.28052	264.52551	352.04269	1633.92798	266.57458	539.44781							
3081	25.667	1036.90906	261.44080	364.01422	1634.30273	264.87885	526.08441							
